<?xml version="1.0" encoding="UTF-8" standalone="no"?>
<!-- Created with Inkscape (http://www.inkscape.org/) -->

<svg
   width="158.83575mm"
   height="96.712509mm"
   viewBox="0 0 158.83575 96.712509"
   version="1.1"
   id="svg1"
   xml:space="preserve"
   inkscape:version="1.3.2 (091e20ef0f, 2023-11-25)"
   sodipodi:docname="netwerkcomponenten.svg"
   xmlns:inkscape="http://www.inkscape.org/namespaces/inkscape"
   xmlns:sodipodi="http://sodipodi.sourceforge.net/DTD/sodipodi-0.dtd"
   xmlns="http://www.w3.org/2000/svg"
   xmlns:svg="http://www.w3.org/2000/svg"><sodipodi:namedview
     id="namedview1"
     pagecolor="#ffffff"
     bordercolor="#666666"
     borderopacity="1.0"
     inkscape:showpageshadow="2"
     inkscape:pageopacity="0.0"
     inkscape:pagecheckerboard="0"
     inkscape:deskcolor="#d1d1d1"
     inkscape:document-units="mm"
     inkscape:zoom="0.98393305"
     inkscape:cx="216.98631"
     inkscape:cy="187.51276"
     inkscape:window-width="1788"
     inkscape:window-height="1363"
     inkscape:window-x="834"
     inkscape:window-y="36"
     inkscape:window-maximized="0"
     inkscape:current-layer="layer1" /><defs
     id="defs1" /><g
     inkscape:label="Layer 1"
     inkscape:groupmode="layer"
     id="layer1"
     transform="translate(-15.092822,-76.965973)"><g
       id="g5"
       transform="translate(-35.98335,-62.4417)"><rect
         style="fill:#a5a51b;fill-opacity:0;stroke:#000000;stroke-width:1;stroke-dasharray:none;stroke-opacity:1"
         id="rect1"
         width="106.84766"
         height="12.003922"
         x="51.576172"
         y="142.49803" /><text
         xml:space="preserve"
         style="font-size:10.5833px;line-height:1.25;font-family:Foco;-inkscape-font-specification:Foco;stroke-width:0.264583"
         x="73.345383"
         y="151.07175"
         id="text1"><tspan
           sodipodi:role="line"
           id="tspan1"
           style="stroke-width:0.264583"
           x="73.345383"
           y="151.07175">Applicatielaag</tspan></text></g><g
       id="g6"
       transform="translate(-35.98335,-42.162143)"><rect
         style="fill:#a5a51b;fill-opacity:0;stroke:#000000;stroke-width:1;stroke-dasharray:none;stroke-opacity:1"
         id="rect1-5"
         width="106.84766"
         height="12.003922"
         x="51.576172"
         y="142.49803" /><text
         xml:space="preserve"
         style="font-size:10.5833px;line-height:1.25;font-family:Foco;-inkscape-font-specification:Foco;stroke-width:0.264583"
         x="74.02269"
         y="151.07175"
         id="text2"><tspan
           sodipodi:role="line"
           id="tspan2"
           style="stroke-width:0.264583"
           x="74.02269"
           y="151.07175">Transportlaag</tspan></text></g><g
       id="g7"
       transform="translate(-35.98335,-0.491251)"><rect
         style="fill:#a5a51b;fill-opacity:0;stroke:#000000;stroke-width:1;stroke-dasharray:none;stroke-opacity:1"
         id="rect1-5-2"
         width="106.84766"
         height="12.003922"
         x="51.576172"
         y="121.1067" /><text
         xml:space="preserve"
         style="font-size:10.5833px;line-height:1.25;font-family:Foco;-inkscape-font-specification:Foco;stroke-width:0.264583"
         x="76.753181"
         y="129.6804"
         id="text3"><tspan
           sodipodi:role="line"
           id="tspan3"
           style="stroke-width:0.264583"
           x="76.753181"
           y="129.6804">Netwerklaag</tspan></text></g><g
       id="g9"
       transform="translate(-35.98335)"><rect
         style="fill:#a5a51b;fill-opacity:0;stroke:#000000;stroke-width:1;stroke-dasharray:none;stroke-opacity:1"
         id="rect1-5-2-7-6"
         width="106.84766"
         height="12.003922"
         x="51.576172"
         y="161.17456" /><text
         xml:space="preserve"
         style="font-size:10.5833px;line-height:1.25;font-family:Foco;-inkscape-font-specification:Foco;stroke-width:0.264583"
         x="78.282471"
         y="169.74826"
         id="text4"><tspan
           sodipodi:role="line"
           id="tspan4"
           style="stroke-width:0.264583"
           x="78.282471"
           y="169.74826">Fysieke laag</tspan></text></g><g
       id="g8"
       transform="translate(-35.98335,1.0669088)"><rect
         style="fill:#a5a51b;fill-opacity:0;stroke:#000000;stroke-width:1;stroke-dasharray:none;stroke-opacity:1"
         id="rect1-5-2-7"
         width="106.84766"
         height="12.003922"
         x="51.576172"
         y="139.82809" /><text
         xml:space="preserve"
         style="font-size:10.5833px;line-height:1.25;font-family:Foco;-inkscape-font-specification:Foco;stroke-width:0.264583"
         x="77.001892"
         y="148.40179"
         id="text5"><tspan
           sodipodi:role="line"
           id="tspan5"
           style="stroke-width:0.264583"
           x="77.001892"
           y="148.40179">Datalinklaag</tspan></text></g><path
       id="rect9"
       style="fill:#a5a51b;fill-opacity:0;stroke:#000000"
       d="m 121.03328,77.465973 h 4.2174 v 36.999957 h -4.2174"
       sodipodi:nodetypes="cccc" /><text
       xml:space="preserve"
       style="font-size:10.5833px;line-height:1.25;font-family:Foco;-inkscape-font-specification:Foco;stroke-width:0.264583"
       x="127.19164"
       y="98.580025"
       id="text9"><tspan
         sodipodi:role="line"
         id="tspan9"
         style="stroke-width:0.264583"
         x="127.19164"
         y="98.580025">op de host</tspan></text><g
       inkscape:label="Layer 1"
       id="layer1-0"
       transform="translate(122.43812,-136.50136)"><path
         style="fill:#009bd8"
         d="m 21.55977,279.14682 -0.03534,4.40877 -4.048041,4.15909 0.09435,-4.17461 z"
         id="path1413"
         inkscape:connector-curvature="0"
         sodipodi:nodetypes="ccccc" /><path
         style="fill:#009bd8;stroke-width:1"
         d="m 8.5588078,279.04894 13.0009622,0.0979 -4.080081,4.31046 -13.1331462,-0.006 z"
         id="path1413-0"
         inkscape:connector-curvature="0"
         sodipodi:nodetypes="ccccc" /><rect
         style="opacity:1;fill:#009bd8;fill-opacity:1;fill-rule:nonzero"
         id="rect1396"
         width="13.260025"
         height="4.1339302"
         x="4.31071"
         y="283.54007" /><path
         style="fill:none;stroke:#000000;stroke-width:0.268301px;stroke-linecap:butt;stroke-linejoin:miter;stroke-opacity:1"
         d="m 21.55977,279.14682 -4.074145,4.39977 v 0"
         id="path826"
         inkscape:connector-curvature="0"
         sodipodi:nodetypes="ccc" /><path
         style="fill:none;stroke:#000000;stroke-width:0.264583px;stroke-linecap:butt;stroke-linejoin:miter;stroke-opacity:1"
         d="m 8.5588078,279.04894 -4.2480979,4.49113"
         id="path826-1"
         inkscape:connector-curvature="0"
         sodipodi:nodetypes="cc" /><path
         style="fill:none;stroke:#000000;stroke-width:0.264583px;stroke-linecap:butt;stroke-linejoin:miter;stroke-opacity:1"
         d="m 21.566209,283.45802 -4.08982,4.25666"
         id="path826-1-1"
         inkscape:connector-curvature="0"
         sodipodi:nodetypes="cc" /><path
         style="fill:none;stroke:#000000;stroke-width:0.264583px;stroke-linecap:butt;stroke-linejoin:miter;stroke-opacity:1"
         d="M 4.3432664,287.7089 17.570735,287.674"
         id="path858"
         inkscape:connector-curvature="0"
         sodipodi:nodetypes="cc" /><path
         style="fill:none;stroke:#000000;stroke-width:0.264583px;stroke-linecap:butt;stroke-linejoin:miter;stroke-opacity:1"
         d="m 4.3422328,287.84016 0.00431,-4.38868"
         id="path860"
         inkscape:connector-curvature="0"
         sodipodi:nodetypes="cc" /><path
         style="fill:none;stroke:#000000;stroke-width:0.266981px;stroke-linecap:butt;stroke-linejoin:miter;stroke-opacity:1"
         d="m 4.3106845,283.54007 13.2729955,0.006"
         id="path858-5"
         inkscape:connector-curvature="0"
         sodipodi:nodetypes="cc" /><path
         style="fill:none;stroke:#000000;stroke-width:0.264583px;stroke-linecap:butt;stroke-linejoin:miter;stroke-opacity:1"
         d="m 17.476389,287.71468 0.0033,-4.25742"
         id="path860-9"
         inkscape:connector-curvature="0"
         sodipodi:nodetypes="cc" /><path
         style="fill:none;stroke:#000000;stroke-width:0.266981px;stroke-linecap:butt;stroke-linejoin:miter;stroke-opacity:1"
         d="m 8.4614402,279.08914 13.1985818,-2e-4"
         id="path858-5-3"
         inkscape:connector-curvature="0"
         sodipodi:nodetypes="cc" /><path
         style="fill:none;stroke:#000000;stroke-width:0.274929px;stroke-linecap:butt;stroke-linejoin:miter;stroke-opacity:1"
         d="m 21.52443,283.55559 0.0033,-4.59687"
         id="path860-9-2"
         inkscape:connector-curvature="0"
         sodipodi:nodetypes="cc" /><g
         id="g1461"
         transform="translate(-0.51449383,-0.11693042)"><path
           sodipodi:nodetypes="cccccccc"
           inkscape:connector-curvature="0"
           id="path961"
           d="m 8.5018066,282.79217 -0.3369304,0.36173 -0.9591147,-0.51882 2.013314,-0.60565 -0.416297,0.44637 3.2864065,4e-5 -0.298922,0.31637 z"
           style="fill:#ffffff;fill-opacity:1" /><path
           sodipodi:nodetypes="cccccccc"
           inkscape:connector-curvature="0"
           id="path963"
           d="m 11.446545,280.38716 -0.416297,0.44637 3.286406,4e-5 -0.298905,0.31637 -3.288473,-4e-5 -0.33693,0.36173 -0.9587626,-0.52098 z"
           style="fill:#ffffff;fill-opacity:1" /><path
           sodipodi:nodetypes="cccccccc"
           inkscape:connector-curvature="0"
           id="path965"
           d="m 12.148121,281.9647 3.404962,4e-5 -0.276027,0.29847 1.873319,-0.45496 -0.81912,-0.66951 -0.479267,0.50963 -3.403545,0.006 z"
           style="fill:#ffffff;fill-opacity:1" /><path
           sodipodi:nodetypes="cccccccc"
           inkscape:connector-curvature="0"
           id="path967"
           d="m 13.968439,280.36547 0.294245,-0.31637 3.409622,4e-5 0.479267,-0.50963 0.815745,0.66673 -1.869944,0.45774 0.276027,-0.29847 z"
           style="fill:#ffffff;fill-opacity:1" /></g></g><g
       id="g2267"
       transform="matrix(0.20311544,0,0,0.20311544,136.04262,143.7431)"><path
         sodipodi:nodetypes="cccccccsccccccccccccccccccccccccccccccccccccccccccccccccccccccccccccccccccccccccccccccccccccccccccccccccccccccccccccccccccccccccccccccccccccccccccccccccccccccccccccccccccccccccccccccscssscscscscsscccccccscccscccssssccc"
         inkscape:connector-curvature="0"
         id="path2201"
         d="m -42.039061,134.11175 c -0.07039,-0.18341 -0.09658,-4.38081 -0.05823,-9.32756 l 0.06974,-8.99408 h 34.131249 34.13125 v 9.26041 9.26042 l -34.073026,0.0671 c -27.213551,0.0536 -34.098785,1e-5 -34.20099,-0.26634 z m 11.653183,-3.90185 v -2.51354 h -2.513541 -1.022172 -1.49137 l -0.07756,2.22684 c -0.04266,1.22476 -0.0149,2.39012 0.06167,2.58968 0.107133,0.27918 0.70449,0.34528 2.591099,0.2867 l 2.451867,-0.0761 z m -4.251785,1.50253 c -0.07914,-0.20624 -0.107365,-1.01563 -0.06272,-1.79865 l 0.08117,-1.42367 h 1.719792 1.719791 v 1.71979 1.71979 l -1.657069,0.0789 c -1.240666,0.0591 -1.69323,-0.0154 -1.800966,-0.29612 z m 10.337202,-1.50253 v -2.51354 h -2.513542 -2.513541 l -0.07756,2.22684 c -0.04266,1.22476 -0.0149,2.39012 0.06168,2.58968 0.107132,0.27918 0.70449,0.34528 2.591099,0.2867 l 2.451867,-0.0761 z m -4.251785,1.50253 c -0.07914,-0.20624 -0.107366,-1.01563 -0.06272,-1.79865 l 0.08118,-1.42367 h 1.719791 1.719792 v 1.71979 1.71979 l -1.65707,0.0789 c -1.240665,0.0591 -1.69323,-0.0154 -1.800965,-0.29612 z m 10.337201,-1.50253 v -2.51354 h -2.513541 -2.513542 l -0.07756,2.22684 c -0.04266,1.22476 -0.0149,2.39012 0.06167,2.58968 0.107133,0.27918 0.70449,0.34528 2.591099,0.2867 l 2.451867,-0.0761 z m -4.251785,1.50253 c -0.07914,-0.20624 -0.107365,-1.01563 -0.06272,-1.79865 l 0.08117,-1.42367 h 1.719792 1.719791 v 1.71979 1.71979 l -1.657069,0.0789 c -1.240666,0.0591 -1.69323,-0.0154 -1.800966,-0.29612 z m 10.337202,-1.50253 v -2.51354 h -2.513542 -2.513541 l -0.07756,2.22684 c -0.04266,1.22476 -0.0149,2.39012 0.06168,2.58968 0.107132,0.27918 0.70449,0.34528 2.591099,0.2867 l 2.451867,-0.0761 z m -4.251785,1.50253 c -0.07914,-0.20624 -0.107366,-1.01563 -0.06272,-1.79865 l 0.08117,-1.42367 h 1.719791 1.719792 v 1.71979 1.71979 l -1.65707,0.0789 c -1.240665,0.0591 -1.69323,-0.0154 -1.800965,-0.29612 z m 10.337202,-1.50253 v -2.51354 h -2.513542 -2.513542 l -0.07756,2.22684 c -0.04266,1.22476 -0.0149,2.39012 0.06167,2.58968 0.107133,0.27918 0.70449,0.34528 2.591099,0.2867 l 2.451868,-0.0761 z m -4.251786,1.50253 c -0.07914,-0.20624 -0.107365,-1.01563 -0.06272,-1.79865 l 0.08117,-1.42367 h 1.719792 1.719792 v 1.71979 1.71979 l -1.65707,0.0789 c -1.240666,0.0591 -1.69323,-0.0154 -1.800966,-0.29612 z M 0.041205,130.2099 v -2.51354 h -2.513542 -2.513541 l -0.07756,2.22684 c -0.04266,1.22476 -0.0149,2.39012 0.06167,2.58968 0.107132,0.27918 0.70449,0.34528 2.591099,0.2867 l 2.451867,-0.0761 z m -4.251785,1.50253 c -0.07914,-0.20624 -0.107366,-1.01563 -0.06272,-1.79865 l 0.08117,-1.42367 h 1.719791 1.719792 v 1.71979 1.71979 l -1.657069,0.0789 c -1.240666,0.0591 -1.693231,-0.0154 -1.800966,-0.29612 z M 6.126622,130.2099 v -2.51354 H 3.61308 1.099538 l -0.07756,2.22684 c -0.04266,1.22476 -0.0149,2.39012 0.06167,2.58968 0.107133,0.27918 0.704491,0.34528 2.591099,0.2867 l 2.451868,-0.0761 z m -4.251786,1.50253 c -0.07914,-0.20624 -0.107365,-1.01563 -0.06272,-1.79865 l 0.08117,-1.42367 H 3.613078 5.33287 v 1.71979 1.71979 l -1.65707,0.0789 c -1.240666,0.0591 -1.69323,-0.0154 -1.800966,-0.29612 z m 10.337202,-1.50253 v -2.51354 H 9.698497 7.184955 l -0.07756,2.22684 c -0.04266,1.22476 -0.0149,2.39012 0.06167,2.58968 0.107132,0.27918 0.70449,0.34528 2.591099,0.2867 l 2.451867,-0.0761 z m -4.251785,1.50253 c -0.07914,-0.20624 -0.107365,-1.01563 -0.06272,-1.79865 l 0.08117,-1.42367 h 1.719792 1.719791 v 1.71979 1.71979 l -1.657069,0.0789 c -1.240666,0.0591 -1.69323,-0.0154 -1.800966,-0.29612 z m 10.072618,-1.50253 v -2.51354 h -2.38125 -2.38125 l -0.07756,2.22684 c -0.04266,1.22476 -0.01484,2.39029 0.06182,2.59005 0.106714,0.2781 0.682892,0.34528 2.458807,0.2867 l 2.31943,-0.0765 z m -3.986977,1.50312 c -0.07927,-0.20657 -0.10759,-1.01622 -0.06295,-1.79924 l 0.08117,-1.42367 h 1.5875 1.5875 v 1.71979 1.71979 l -1.524555,0.0795 c -1.128043,0.0588 -1.562037,-0.0182 -1.668672,-0.29612 z m 13.115102,-7.8388 v -8.55818 l 4.15421,-8.56036 c 2.284818,-4.7082 4.249348,-8.56036 4.365628,-8.56036 0.11628,0 0.21141,3.5949 0.21141,7.98868 v 7.98868 l -4.11923,8.8785 c -2.265582,4.88318 -4.230113,8.99162 -4.365627,9.12987 -0.152234,0.1553 -0.246391,-3.0191 -0.246391,-8.30683 z m -68.482984,-9.2639 c 0.04851,-0.13956 3.291039,-4.30675 7.205628,-9.26042 l 7.117435,-9.00667 H 4.314369 c 20.82121,0 31.313295,0.0892 31.313295,0.26614 0,0.43486 -8.767946,17.84052 -9.093635,18.05221 -0.462174,0.30039 -67.960519,0.2494 -67.856017,-0.0513 z m 20.064235,-7.55146 0.897554,-0.92604 4.512162,2.6e-4 c 12.441105,7.9e-4 29.519702,0.3657 29.260304,0.62509 -0.150801,0.15084 -0.274187,0.48854 -0.274187,0.75048 0,0.68758 0.635928,0.60319 5.159375,-0.68464 4.847568,-1.3801 4.928388,-1.52712 1.852083,-3.36908 -1.164167,-0.69705 -2.259883,-1.27265 -2.434929,-1.27911 -0.175043,-0.006 -0.700984,0.4645 -1.168759,1.04658 l -0.850501,1.05833 H -1.609779 -18.91491 l 0.54837,-0.69714 c 1.19524,-1.5195 0.551313,-1.51465 -4.743296,0.0357 -2.236378,0.65485 -4.103759,1.19063 -4.149738,1.19063 -0.04598,0 -0.0836,0.20901 -0.0836,0.46447 0,0.56109 3.50443,2.64622 4.512159,2.68472 0.446619,0.0171 0.98,-0.28815 1.573257,-0.90023 z"
         style="fill:#028bc8;stroke-width:0.264583" /><path
         inkscape:connector-curvature="0"
         id="path2197"
         d="m 26.896027,124.31449 -0.02217,-7.74749 1.407654,-3.10043 c 3.240298,-7.13691 6.635408,-14.046612 6.839778,-13.920312 0.12058,0.0745 0.21923,3.478712 0.21923,7.564852 v 7.42936 l -2.25598,4.79201 c -1.24078,2.6356 -3.135804,6.57794 -4.211155,8.76076 l -1.955186,3.96875 z m -67.323501,-10.44261 c 1.360842,-1.87857 9.610513,-12.56288 11.542535,-14.948962 l 1.553202,-1.91823 h 30.92364 c 20.477683,0 30.979276,0.09 31.088336,0.26649 0.1479,0.23931 -8.224598,16.821592 -8.910787,17.648402 -0.228621,0.27547 -6.742115,0.34136 -33.743235,0.34136 h -33.45993 z m 18.430838,-5.88699 0.738883,-0.92603 11.564242,7.9e-4 c 6.360331,2.7e-4 13.951973,0.0781 16.870311,0.17262 l 5.306071,0.17192 -0.11058,0.75343 c -0.09265,0.63128 -0.01722,0.75342 0.465323,0.75342 0.761764,0 8.803084,-2.33393 9.114591,-2.64543 0.147018,-0.14702 0.119817,-0.39045 -0.06906,-0.61803 -0.393185,-0.47386 -4.415269,-2.82205 -4.833559,-2.82205 -0.171284,0 -0.71908,0.47625 -1.217322,1.05833 l -0.905895,1.05833 h -17.1965 -17.196504 l 0.54837,-0.69714 c 1.169927,-1.48731 0.513781,-1.50671 -4.241625,-0.12539 -1.949408,0.56626 -3.871801,1.10431 -4.271984,1.19567 -1.337828,0.30543 -0.895191,1.02079 1.455209,2.35184 1.200547,0.67987 2.420937,1.23785 2.711979,1.23994 0.291041,0.002 0.861663,-0.4129 1.26805,-0.92222 z"
         style="fill:#0073b3;stroke-width:0.264583" /></g><g
       transform="translate(120.90462,-157.55364)"
       id="g904"><ellipse
         style="opacity:1;fill:#009bd8;fill-opacity:1;fill-rule:nonzero;stroke:#000000;stroke-width:0.265745;stroke-miterlimit:10;stroke-dasharray:none;stroke-dashoffset:0;stroke-opacity:1"
         id="path826-1-6"
         cx="13.395842"
         cy="286.50964"
         rx="7.5408292"
         ry="2.9293859" /><rect
         style="opacity:1;fill:#009bd8;fill-opacity:1;fill-rule:nonzero"
         id="rect845"
         width="15.111696"
         height="5.0055671"
         x="5.8744454"
         y="281.71002" /><ellipse
         style="opacity:1;fill:#009bd8;fill-opacity:1;fill-rule:nonzero;stroke:#000000;stroke-width:0.265228;stroke-miterlimit:10;stroke-dasharray:none;stroke-dashoffset:0;stroke-opacity:1"
         id="path826-18"
         cx="13.392711"
         cy="281.83246"
         rx="7.5108109"
         ry="2.9296446" /><path
         style="fill:none;stroke:#000000;stroke-width:0.264583px;stroke-linecap:butt;stroke-linejoin:miter;stroke-opacity:1"
         d="m 5.8744454,281.71002 v 5.00556"
         id="path847"
         inkscape:connector-curvature="0"
         sodipodi:nodetypes="cc" /><path
         style="fill:none;stroke:#000000;stroke-width:0.264583px;stroke-linecap:butt;stroke-linejoin:miter;stroke-opacity:1"
         d="m 20.915861,281.71106 v 5.00556"
         id="path847-9"
         inkscape:connector-curvature="0"
         sodipodi:nodetypes="cc" /><path
         style="fill:#ffffff;fill-opacity:1"
         d="m 14.410815,280.21713 -0.756797,-0.12394 2.226652,-0.72434 0.341717,1.14733 -0.70673,-0.11615 -1.069857,1.11008 -1.100672,-0.18347 z"
         id="path864"
         inkscape:connector-curvature="0"
         sodipodi:nodetypes="cccccccc" /><path
         style="fill:#ffffff;fill-opacity:1"
         d="m 10.381971,281.72612 -0.3844203,0.39447 2.3130943,-0.51386 -0.64105,-1.21698 -0.546068,0.56791 -3.4482612,-0.57404 -0.7413226,0.77297 z"
         id="path875"
         inkscape:connector-curvature="0"
         sodipodi:nodetypes="cccccccc" /><path
         style="fill:#ffffff;fill-opacity:1"
         d="m 12.368145,283.66794 0.879037,0.1461 -2.229737,0.54905 -0.322587,-0.97005 0.564306,0.0919 1.18339,-1.21646 1.11308,0.16813 c -0.444088,0.47435 -0.827258,0.86444 -1.187489,1.23133 z"
         id="path877"
         inkscape:connector-curvature="0"
         sodipodi:nodetypes="cccccccc" /><path
         style="fill:#ffffff;fill-opacity:1"
         d="m 19.020028,283.1569 -3.285832,-0.54735 -0.503409,0.53128 -0.620827,-1.15182 2.38125,-0.6842 -0.521797,0.54183 c 1.209955,0.19671 2.557845,0.42814 3.289141,0.54766 0,0 -0.170595,0.17004 -0.738526,0.7626 z"
         id="path879"
         inkscape:connector-curvature="0"
         sodipodi:nodetypes="ccccccsc" /></g><text
       xml:space="preserve"
       style="font-size:10.5833px;line-height:1.25;font-family:Foco;-inkscape-font-specification:Foco;stroke-width:0.264583"
       x="145.73466"
       y="129.7924"
       id="text10"><tspan
         sodipodi:role="line"
         id="tspan10"
         style="stroke-width:0.264583"
         x="145.73466"
         y="129.7924">router</tspan></text><text
       xml:space="preserve"
       style="font-size:10.5833px;line-height:1.25;font-family:Foco;-inkscape-font-specification:Foco;stroke-width:0.264583"
       x="146.11566"
       y="150.57466"
       id="text11"><tspan
         sodipodi:role="line"
         id="tspan11"
         style="stroke-width:0.264583"
         x="146.11566"
         y="150.57466">switch</tspan></text><text
       xml:space="preserve"
       style="font-size:10.5833px;line-height:1.25;font-family:Foco;-inkscape-font-specification:Foco;stroke-width:0.264583"
       x="145.73466"
       y="170.85422"
       id="text12"><tspan
         sodipodi:role="line"
         id="tspan12"
         style="stroke-width:0.264583"
         x="145.73466"
         y="170.85422">hub</tspan></text></g></svg>
